<?xml version="1.0" standalone="no"?>
<!DOCTYPE svg PUBLIC "-//W3C//DTD SVG 20010904//EN"
 "http://www.w3.org/TR/2001/REC-SVG-20010904/DTD/svg10.dtd">
<svg version="1.0" xmlns="http://www.w3.org/2000/svg"
 width="300.000000pt" height="300.000000pt" viewBox="0 0 300.000000 300.000000"
 preserveAspectRatio="xMidYMid meet">
<metadata>
Created by potrace 1.15, written by Peter Selinger 2001-2017
</metadata>
<g transform="translate(0.000000,300.000000) scale(0.100000,-0.100000)"
fill="#000000" stroke="none">
<path d="M100 2733 c-8 -3 -25 -15 -37 -26 l-23 -20 0 -772 c0 -675 2 -773 15
-792 9 -13 22 -20 30 -17 8 4 15 1 15 -6 0 -7 9 -3 20 10 18 21 19 25 5 40 -8
9 -15 33 -15 54 0 35 -1 36 -22 25 l-21 -12 21 28 c26 33 32 115 8 115 -8 0
-16 -6 -19 -12 -3 -7 -4 -2 -4 11 1 13 9 26 18 28 14 4 17 24 18 148 1 120 -1
144 -14 148 -8 4 -15 12 -14 19 0 10 2 10 6 1 19 -49 23 31 22 473 0 267 1
488 3 490 3 2 212 4 466 5 l461 0 4 32 4 32 1 -32 c2 -30 5 -33 32 -33 17 0
30 5 30 10 0 6 5 10 11 10 5 0 7 -4 4 -10 -4 -6 142 -9 400 -10 l406 0 -5 22
-6 23 11 -22 12 -23 470 0 c259 0 474 -3 479 -8 8 -8 12 -1491 4 -1499 -2 -3
-195 -4 -427 -4 -315 0 -426 -3 -431 -12 -6 -9 -10 -9 -16 0 -10 17 -294 16
-285 -1 3 -6 0 -5 -8 2 -19 17 -29 15 -23 -6 5 -16 5 -16 -9 1 -16 20 -47 23
-47 5 0 -9 -3 -9 -8 -3 -8 12 -22 13 -39 2 -7 -5 -13 -4 -13 1 0 5 -38 10 -85
11 -76 2 -85 0 -85 -16 -1 -17 -1 -17 -14 0 -12 15 -28 17 -109 16 -55 -1 -95
-6 -94 -12 1 -5 -4 -12 -12 -15 -10 -3 -12 0 -8 12 8 20 -9 21 -29 1 -17 -17
-34 -20 -34 -6 0 5 8 12 18 14 9 3 -2 5 -25 6 -26 1 -43 -4 -43 -10 0 -8 -4
-8 -12 -1 -16 12 -120 13 -112 1 3 -5 0 -9 -5 -9 -6 0 -11 5 -11 10 0 14 -153
10 -162 -4 -6 -8 -10 -8 -15 0 -9 11 -89 12 -115 0 -9 -4 -25 -3 -37 3 -25 14
-54 14 -46 1 3 -5 1 -10 -4 -10 -6 0 -11 5 -11 11 0 6 -23 9 -60 7 -53 -3 -59
-5 -54 -22 4 -13 2 -17 -7 -14 -8 3 -13 12 -11 22 3 19 -14 22 -21 4 -4 -10
-6 -10 -6 0 -1 7 -16 12 -42 12 -24 0 -38 -4 -34 -10 7 -11 -8 -14 -19 -3 -4
4 -18 9 -33 11 -20 2 -24 0 -20 -12 4 -9 2 -16 -3 -16 -6 0 -10 7 -10 15 0 10
-10 15 -30 15 -23 0 -30 -4 -30 -20 0 -11 -7 -23 -15 -26 -41 -16 -2 -24 121
-24 117 0 135 2 130 15 -3 8 -1 15 4 15 6 0 10 -6 10 -13 0 -19 210 -23 222
-5 6 10 8 10 8 1 0 -9 73 -12 300 -12 191 0 299 3 295 9 -3 6 -1 10 4 10 6 0
11 -4 11 -10 0 -14 1642 -13 1673 1 14 6 30 22 36 36 8 17 11 248 11 783 l0
759 -24 28 -24 28 -401 1 c-337 2 -401 0 -401 -12 0 -8 5 -14 10 -14 6 0 10
-7 10 -15 0 -12 -3 -12 -18 3 -10 9 -17 22 -15 28 4 12 -404 13 -424 1 -7 -5
-13 -4 -13 2 0 12 -103 9 -112 -4 -5 -7 -11 -6 -15 1 -5 7 -44 11 -104 11 -83
-1 -96 -3 -92 -16 4 -13 3 -14 -5 -2 -12 17 -54 22 -64 7 -6 -8 -10 -8 -15 0
-11 15 -745 15 -755 0 -6 -8 -8 -8 -8 0 0 11 -371 17 -400 7z"/>
<path d="M344 2549 c-2 -4 7 -53 20 -110 23 -106 22 -121 -16 -114 -11 2 -18
-2 -18 -11 0 -12 36 -20 71 -16 4 1 3 -15 -2 -36 -4 -20 -7 -38 -5 -39 2 -2
21 -5 44 -7 35 -4 40 -2 35 12 -6 15 -5 15 14 0 11 -10 25 -18 31 -18 16 0 26
21 14 29 -6 3 -28 76 -49 161 l-38 155 -48 0 c-27 0 -51 -3 -53 -6z"/>
<path d="M588 2552 c-44 -3 -63 -15 -38 -24 5 -1 28 -64 50 -138 50 -169 54
-179 77 -175 10 2 23 4 29 4 7 1 16 20 22 44 10 37 7 56 -19 146 -23 81 -27
106 -18 117 7 8 9 17 6 20 -7 7 -54 10 -109 6z"/>
<path d="M930 2550 c-8 -5 -8 -26 1 -73 7 -37 15 -67 18 -67 3 0 7 -18 9 -40
2 -37 0 -40 -22 -40 -19 0 -24 -4 -19 -16 3 -9 13 -14 24 -11 20 6 33 -7 42
-40 3 -16 1 -23 -10 -23 -8 0 -13 -5 -11 -12 4 -11 32 -13 135 -9 24 1 25 2
11 19 -8 9 -29 80 -47 157 -18 77 -34 144 -35 149 -3 11 -80 16 -96 6z"/>
<path d="M1159 2549 c-12 -7 -12 -10 0 -18 17 -11 16 -282 -2 -293 -20 -12 0
-20 62 -22 68 -3 93 6 73 26 -6 6 -12 35 -12 64 0 33 -5 54 -12 57 -10 4 -10
6 0 6 16 1 17 131 1 131 -7 0 0 10 15 21 15 12 25 24 22 27 -10 9 -132 11
-147 1z"/>
<path d="M1357 2548 c-9 -6 -9 -10 0 -16 9 -6 14 -50 16 -146 3 -113 1 -138
-11 -145 -26 -15 -3 -29 43 -26 25 1 48 5 51 8 3 3 11 4 17 1 9 -3 12 23 11
90 -1 52 -4 98 -7 104 -4 5 -3 12 0 16 4 4 6 24 4 46 -2 28 2 41 16 48 10 6
14 14 10 19 -11 10 -135 11 -150 1z"/>
<path d="M1727 2548 c-10 -6 4 -99 29 -195 5 -18 1 -22 -22 -25 -15 -2 -30 -9
-32 -17 -3 -10 3 -12 28 -9 27 4 33 1 41 -20 6 -17 6 -29 -2 -38 -18 -22 -5
-27 71 -30 69 -3 86 6 61 31 -5 6 -24 71 -41 145 -17 74 -33 143 -36 153 -4
13 -14 17 -46 15 -22 -2 -45 -6 -51 -10z"/>
<path d="M1943 2546 c-4 -5 -1 -12 5 -14 17 -5 17 -289 0 -295 -27 -9 5 -20
62 -22 l60 -2 0 173 0 172 -61 -1 c-33 -1 -63 -6 -66 -11z"/>
<path d="M2109 2549 c-10 -6 -10 -12 4 -27 26 -28 23 -96 -5 -115 l-23 -16 23
-16 c18 -13 22 -26 22 -70 0 -33 5 -55 13 -59 8 -4 7 -5 -3 -5 -30 2 -40 -1
-40 -15 0 -19 78 -10 110 13 49 35 39 114 -17 138 l-37 15 31 13 c44 19 57 47
43 90 -6 19 -16 38 -22 42 -20 12 -86 20 -99 12z"/>
<path d="M2294 2548 c-4 -6 -1 -13 5 -17 17 -11 16 -282 -1 -292 -22 -14 2
-23 63 -25 l59 -1 0 150 c0 126 3 153 17 169 9 10 12 18 7 19 -82 7 -145 6
-150 -3z"/>
<path d="M2569 2548 c-11 -7 -11 -11 -1 -15 17 -7 17 -290 0 -295 -6 -2 -9 -9
-5 -15 5 -8 69 -11 120 -4 4 1 7 77 7 169 l0 169 -53 1 c-29 0 -60 -4 -68 -10z"/>
<path d="M1315 2081 c-77 -28 -109 -46 -147 -89 -37 -41 -63 -82 -53 -82 4 0
-1 -7 -10 -16 -9 -10 -14 -25 -12 -36 3 -10 2 -16 -3 -13 -12 7 -33 -90 -28
-130 2 -19 -1 -37 -7 -39 -6 -3 -3 -11 8 -19 18 -15 24 -32 7 -22 -15 9 -4
-105 16 -156 9 -24 25 -51 35 -60 10 -9 15 -19 12 -23 -3 -3 10 -21 30 -40 27
-25 42 -32 61 -29 16 3 26 1 26 -6 0 -7 -4 -10 -9 -7 -5 4 -17 3 -26 0 -25
-10 3 -25 32 -17 19 4 23 1 23 -16 0 -12 3 -20 8 -19 4 1 21 -4 37 -11 22 -9
35 -10 47 -2 13 8 19 7 27 -7 8 -14 10 -10 11 18 0 35 -32 72 -44 49 -2 -5 -3
-4 -2 3 2 7 -1 21 -6 31 -5 10 -9 99 -9 198 0 135 -2 179 -12 179 -9 0 -9 2 1
8 9 6 12 39 11 123 -2 119 11 169 46 182 17 7 21 67 4 67 -5 0 -7 -4 -4 -10 3
-5 2 -10 -4 -10 -5 0 -11 4 -13 9 -1 5 -25 2 -53 -8z"/>
<path d="M1450 2073 c0 -15 12 -36 30 -53 l30 -28 0 -224 c0 -160 3 -219 11
-208 8 11 9 8 4 -15 -14 -56 -17 -175 -6 -175 6 0 11 5 11 11 0 5 4 8 10 4 14
-9 0 -37 -16 -31 -8 3 -14 1 -14 -5 0 -6 -14 -24 -31 -40 -24 -22 -29 -32 -20
-42 8 -10 7 -17 -1 -25 -9 -9 -8 -12 4 -12 9 0 20 9 23 20 3 11 13 20 22 20
13 0 13 -3 3 -15 -8 -9 -9 -15 -2 -15 6 0 14 5 17 10 4 6 10 8 15 5 16 -10 81
28 75 43 -4 12 -2 12 9 3 11 -9 24 0 65 45 29 31 49 59 46 62 -3 3 1 12 9 21
19 21 33 77 17 67 -6 -4 -11 -2 -11 3 0 6 6 11 14 11 20 0 27 24 33 121 4 61
1 107 -11 160 -18 82 -70 184 -88 173 -6 -4 -8 -3 -5 3 4 5 -3 20 -15 33 -30
32 -109 80 -121 73 -5 -3 -12 -1 -16 5 -3 6 -25 13 -49 15 -40 5 -42 4 -42
-20z"/>
<path d="M813 2082 c-81 -4 -86 -19 -28 -76 26 -25 45 -52 45 -64 0 -13 6 -22
15 -22 8 0 15 -4 15 -10 0 -5 -6 -7 -13 -4 -10 3 -13 -17 -15 -83 -2 -91 3
-127 19 -118 5 4 6 -2 2 -11 -5 -14 -3 -16 11 -11 13 5 17 2 15 -11 -3 -29 1
-42 10 -42 6 0 11 74 13 171 l3 171 33 29 c18 16 30 34 27 39 -3 6 1 7 9 4 17
-7 20 4 8 22 -8 14 -80 20 -169 16z"/>
<path d="M237 2073 c-17 -16 -5 -44 26 -59 29 -14 85 -95 142 -205 5 -10 16
-19 23 -19 7 0 10 -4 7 -10 -7 -11 133 -260 147 -260 5 0 6 -4 3 -10 -3 -5 -3
-10 2 -10 4 0 16 -21 27 -46 10 -25 27 -50 36 -57 10 -6 16 -17 13 -24 -9 -23
17 -14 41 14 l23 27 0 -26 c1 -18 -4 -25 -12 -21 -8 2 -18 -4 -23 -14 -8 -14
-4 -28 15 -60 23 -40 27 -42 68 -41 24 1 41 6 39 10 -3 4 -1 8 5 8 5 0 13 -4
16 -10 3 -5 19 -10 35 -10 l29 0 -1 120 c0 66 -4 117 -8 115 -4 -3 -13 1 -19
9 -9 11 -8 14 3 12 8 0 15 4 14 9 0 6 -4 9 -10 7 -5 -1 -7 6 -3 17 3 11 1 22
-5 26 -6 3 -17 22 -25 41 -10 25 -18 32 -32 28 -15 -5 -15 -4 -3 4 12 9 12 13
-1 29 -8 10 -20 30 -27 45 -6 15 -23 46 -38 70 -16 24 -37 61 -49 83 -11 22
-43 79 -70 127 l-50 88 -166 0 c-91 0 -169 -3 -172 -7z"/>
<path d="M1850 2064 c-11 -13 -10 -18 7 -36 17 -17 24 -18 44 -8 21 9 22 9 8
-2 -16 -13 -15 -20 6 -98 13 -48 28 -84 34 -83 6 2 11 -2 11 -7 0 -5 -4 -10
-9 -10 -5 0 -4 -18 1 -41 8 -28 15 -38 25 -35 11 4 11 1 3 -14 -8 -14 -7 -26
1 -42 7 -13 12 -24 11 -25 -9 -14 1 -43 16 -44 9 0 12 -3 6 -5 -6 -3 -9 -17
-6 -31 4 -24 6 -25 18 -9 6 9 15 13 18 8 3 -5 -1 -15 -9 -22 -17 -14 -20 -35
-4 -24 7 4 9 0 4 -14 -7 -24 33 -184 45 -177 4 3 8 -1 7 -8 -1 -49 5 -78 19
-84 9 -3 20 0 25 8 6 10 9 10 9 2 0 -7 9 -13 20 -13 11 0 20 5 20 10 0 7 6 7
19 0 11 -5 22 -10 24 -10 9 0 38 122 33 136 -3 8 -1 14 4 14 6 0 10 8 10 18 0
14 -2 15 -10 2 -5 -8 -10 -11 -10 -7 0 5 9 20 19 33 30 38 35 96 15 170 -9 35
-20 64 -23 64 -3 0 -7 17 -9 37 -1 20 -7 42 -13 49 -6 7 -8 17 -5 22 3 5 -1
20 -9 35 -7 14 -11 27 -9 30 2 2 -3 26 -11 53 -22 71 -19 99 10 118 28 19 33
41 9 50 -9 3 -93 6 -189 6 -144 0 -175 -3 -185 -16z"/>
<path d="M2360 2074 c0 -3 -16 -69 -36 -145 l-37 -139 53 -197 c29 -109 55
-202 58 -208 3 -5 7 -17 7 -26 1 -8 7 -36 14 -62 13 -44 15 -46 47 -45 19 1
34 5 34 10 0 4 5 8 11 8 5 0 7 -6 3 -12 -6 -10 -4 -10 7 0 16 14 33 16 24 2
-3 -5 1 -10 9 -10 10 0 17 10 18 28 2 40 3 46 10 57 19 31 49 182 42 215 -4
19 -8 40 -10 47 -6 33 -39 161 -69 273 -19 69 -39 144 -45 168 l-11 42 -64 0
c-36 0 -65 -3 -65 -6z"/>
<path d="M2613 2062 c-4 -9 8 -26 33 -47 l38 -32 -27 -120 c-25 -107 -26 -125
-15 -171 6 -29 15 -49 19 -45 4 5 24 73 44 152 42 169 54 195 101 223 21 13
34 27 32 37 -5 23 -217 26 -225 3z"/>
<path d="M311 1749 c-1 -81 2 -125 10 -135 8 -10 8 -14 0 -14 -6 0 -11 -11
-11 -25 0 -14 5 -25 12 -25 9 0 9 -3 0 -12 -7 -7 -12 -41 -12 -81 0 -67 -21
-137 -41 -137 -5 0 -18 -9 -30 -21 -16 -16 -18 -23 -8 -35 15 -18 149 -20 168
-1 11 10 14 10 18 0 7 -19 31 -16 42 6 8 14 7 22 -3 30 -7 6 -16 8 -19 4 -4
-3 -7 -1 -7 6 0 16 -32 10 -47 -9 -8 -10 -12 -11 -13 -3 0 6 9 18 20 26 18 12
18 15 5 35 -12 16 -15 61 -16 216 -1 108 -5 198 -10 201 -5 3 -17 26 -28 50
-11 25 -22 45 -24 45 -2 0 -5 -54 -6 -121z"/>
<path d="M1417 989 c-24 -14 -47 -62 -47 -100 0 -22 10 -41 35 -66 32 -32 40
-35 76 -30 137 18 125 208 -13 207 -18 0 -41 -5 -51 -11z"/>
</g>
</svg>
